<?xml version="1.0" encoding="UTF-8"?>
<svg version="1.1" xmlns="http://www.w3.org/2000/svg" width="512" height="512">
<path d="M0 0 C1.34275246 -0.01469078 1.34275246 -0.01469078 2.71263123 -0.02967834 C22.32122464 -0.19995566 41.28714451 -0.10421492 60.5078125 4.23828125 C61.97154297 4.55974121 61.97154297 4.55974121 63.46484375 4.88769531 C82.70077752 9.21767123 101.11830445 15.85993967 118.50683594 25.16992188 C120.60441474 26.28985902 122.71601261 27.38041121 124.828125 28.47265625 C141.42675649 37.21384002 155.95819376 48.32579192 169.5078125 61.23828125 C170.85535529 62.39189722 172.20891448 63.53854917 173.5703125 64.67578125 C189.95863518 79.00713338 202.46275827 97.66570599 213.5078125 116.23828125 C213.88244629 116.86347656 214.25708008 117.48867187 214.64306641 118.1328125 C232.05111849 147.60641734 242.41600188 184.09478378 242.74609375 218.35546875 C242.7558876 219.20205048 242.76568146 220.0486322 242.77577209 220.92086792 C243.34449383 282.89136446 224.92833081 342.34853047 181.06103516 387.63378906 C179.95050836 388.78097267 178.84675538 389.93472922 177.74755859 391.09277344 C168.07316624 401.26605257 157.92743642 410.08220262 146.5078125 418.23828125 C145.92306152 418.6677002 145.33831055 419.09711914 144.73583984 419.53955078 C125.13807806 433.89004166 102.5933736 444.00743581 79.5078125 451.23828125 C78.68442383 451.49931641 77.86103516 451.76035156 77.01269531 452.02929688 C71.56517488 453.71559648 66.08829409 455.0699512 60.5078125 456.23828125 C59.59596191 456.43292969 58.68411133 456.62757813 57.74462891 456.828125 C5.1030328 467.54379332 -50.35577175 458.45457173 -97.4921875 433.23828125 C-98.64847656 432.6246875 -99.80476563 432.01109375 -100.99609375 431.37890625 C-115.65396776 423.30790395 -129.03273022 413.37546321 -141.4921875 402.23828125 C-142.31976563 401.50327393 -142.31976563 401.50327393 -143.1640625 400.75341797 C-165.84348459 380.5252981 -183.75680361 355.82352486 -196.4921875 328.23828125 C-196.79463379 327.5932666 -197.09708008 326.94825195 -197.40869141 326.28369141 C-203.78190595 312.61612037 -208.57556601 298.56666439 -212.1796875 283.92578125 C-212.36998535 283.17014893 -212.5602832 282.4145166 -212.75634766 281.63598633 C-216.71789612 264.75882278 -218.04756978 247.84024485 -217.9296875 230.55078125 C-217.92512543 229.11818466 -217.92512543 229.11818466 -217.92047119 227.65664673 C-217.8479837 212.19699713 -216.91006065 197.36640168 -213.4921875 182.23828125 C-213.27788086 181.26246094 -213.06357422 180.28664062 -212.84277344 179.28125 C-209.6557922 165.12307425 -205.11228949 151.60809372 -199.4921875 138.23828125 C-199.18587402 137.50448242 -198.87956055 136.77068359 -198.56396484 136.01464844 C-189.30911536 114.22500281 -175.61702688 93.69421406 -159.48828125 76.38671875 C-157.66833504 74.42787253 -155.95501377 72.4153225 -154.2421875 70.36328125 C-139.4688285 53.53244531 -120.61086485 40.60810074 -101.4921875 29.23828125 C-100.86699219 28.86364746 -100.24179688 28.48901367 -99.59765625 28.10302734 C-70.52660837 10.93273826 -33.82922426 0.30569004 0 0 Z M-111.4921875 51.23828125 C-112.4409375 51.91246094 -113.3896875 52.58664063 -114.3671875 53.28125 C-130.5086775 65.06539629 -145.13226723 78.5132457 -157.4921875 94.23828125 C-158.306875 95.24761719 -159.1215625 96.25695312 -159.9609375 97.296875 C-166.26278082 105.18515373 -171.54901723 113.44369665 -176.4921875 122.23828125 C-176.894375 122.94162598 -177.2965625 123.6449707 -177.7109375 124.36962891 C-187.23332056 141.13423064 -194.10131992 158.80979321 -198.8671875 177.48828125 C-199.09374023 178.37217529 -199.32029297 179.25606934 -199.55371094 180.16674805 C-203.48420072 196.58171459 -205.02454853 212.8324323 -204.8671875 229.67578125 C-204.86253479 230.57070282 -204.85788208 231.46562439 -204.85308838 232.38766479 C-204.77309352 245.5374432 -204.36777414 258.35965124 -201.4921875 271.23828125 C-201.28819336 272.1833252 -201.08419922 273.12836914 -200.87402344 274.10205078 C-193.3253379 308.37879682 -178.91917878 340.08893988 -156.4921875 367.23828125 C-156.0178125 367.81416992 -155.5434375 368.39005859 -155.0546875 368.98339844 C-145.46601927 380.55097802 -135.33079126 390.93310683 -123.4921875 400.23828125 C-122.48285156 401.05296875 -121.47351563 401.86765625 -120.43359375 402.70703125 C-112.54531502 409.00887457 -104.2867721 414.29511098 -95.4921875 419.23828125 C-94.78884277 419.64046875 -94.08549805 420.04265625 -93.36083984 420.45703125 C-43.99931721 448.49463896 15.10546449 455.09826667 69.7578125 440.48828125 C93.45768387 433.79363025 116.56136853 423.8438741 136.5078125 409.23828125 C137.73168386 408.3735748 138.95564878 407.50900077 140.1796875 406.64453125 C165.487724 388.48720737 185.91442103 365.1202166 201.5078125 338.23828125 C201.92272949 337.52365723 202.33764648 336.8090332 202.76513672 336.07275391 C214.36015717 315.79372736 221.71386477 294.0454876 226.5078125 271.23828125 C226.68570312 270.43052246 226.86359375 269.62276367 227.046875 268.79052734 C238.1338338 216.49043895 224.9140441 157.65951344 196.08081055 113.30419922 C189.30953496 103.06583715 181.93729635 93.66669459 173.65234375 84.60546875 C171.76243176 82.51933639 169.94469503 80.39178364 168.1328125 78.23828125 C132.7922664 37.99825035 77.33226893 16.51989772 24.99584961 12.57983398 C-22.6718291 9.70070072 -72.56554105 23.39491608 -111.4921875 51.23828125 Z " fill="#000000" transform="translate(243.4921875,25.76171875)"/>
<path d="M0 0 C1.22962967 -0.0071553 2.45925934 -0.01431061 3.72615051 -0.02168274 C5.08586095 -0.0245227 6.44557167 -0.02723447 7.80528259 -0.02983093 C9.23941207 -0.0360983 10.67353992 -0.04274534 12.10766602 -0.04974365 C16.81146624 -0.07074153 21.51526666 -0.08113717 26.21910095 -0.09111023 C27.83863784 -0.09515839 29.45817456 -0.09927533 31.07771111 -0.10346031 C38.68148264 -0.12249698 46.28524451 -0.1367352 53.88903528 -0.14507228 C62.67148721 -0.15486085 71.45368819 -0.18122868 80.23605162 -0.22157317 C87.02338633 -0.25168604 93.81064886 -0.26653626 100.5980491 -0.26985329 C104.65311639 -0.27220793 108.70791509 -0.28122268 112.76291084 -0.30631447 C116.57396696 -0.3295182 120.38457611 -0.33385994 124.19568443 -0.32355309 C125.59575509 -0.32305584 126.9958472 -0.32943171 128.39585114 -0.34310913 C130.30377745 -0.36070949 132.21189612 -0.35137544 134.11987305 -0.34057617 C135.72291337 -0.3441587 135.72291337 -0.3441587 137.35833836 -0.34781361 C139.9964447 0.14717102 139.9964447 0.14717102 141.83248043 2.02140522 C143.31347147 4.72616187 143.60363398 6.11122461 142.9964447 9.14717102 C139.39876911 12.68720369 137.06544595 13.64655272 132.05813599 13.63923645 C130.27295311 13.65143471 130.27295311 13.65143471 128.45170593 13.66387939 C127.1544458 13.65256485 125.85718567 13.64125031 124.52061462 13.6295929 C123.13385636 13.63177994 121.74709995 13.63577848 120.36035156 13.64144897 C117.37827353 13.65000434 114.39655567 13.6462439 111.41449547 13.63302612 C106.69448483 13.61266161 101.9748359 13.62267941 97.25482178 13.63728333 C86.38003446 13.6663022 75.50535376 13.65559987 64.63054657 13.64458466 C54.66978406 13.63490068 44.70921091 13.63368328 34.74848062 13.66446543 C30.06143775 13.67780731 25.37493958 13.67192403 20.68792951 13.65110016 C17.76482602 13.64208384 14.84193023 13.64961565 11.91884422 13.66151237 C9.92846142 13.66464221 7.93807801 13.64790352 5.94776917 13.63046265 C-1.23992028 13.6792299 -5.85446312 14.38411703 -12.0035553 18.14717102 C-12.9935553 18.47717102 -13.9835553 18.80717102 -15.0035553 19.14717102 C-16.11589168 20.99938599 -16.11589168 20.99938599 -17.0035553 23.14717102 C-17.52407675 24.0077038 -17.52407675 24.0077038 -18.05511379 24.88562107 C-22.294347 32.66093742 -21.57273635 41.21924708 -21.53700256 49.80903625 C-21.54406807 51.59707855 -21.55281574 53.38511486 -21.56311035 55.17314148 C-21.58554314 60.01000125 -21.58267894 64.84653284 -21.57378888 69.68342471 C-21.56866569 73.72907052 -21.57598235 77.77465539 -21.58326095 81.82029492 C-21.60024055 91.36786614 -21.59671364 100.91527745 -21.57997131 110.46284485 C-21.56305012 120.29629032 -21.57888897 130.12929186 -21.61119419 139.96268886 C-21.63792593 148.42158864 -21.64515646 156.88035053 -21.63667911 165.33928829 C-21.63176058 170.3843271 -21.63390737 175.42909887 -21.65446663 180.47410393 C-21.67288019 185.21938286 -21.66679593 189.96402533 -21.64226723 194.70927048 C-21.63727738 196.44502384 -21.6407014 198.18082618 -21.65341568 199.91654015 C-21.72078951 209.90899118 -21.56898321 218.84169714 -14.59635258 226.74149227 C-8.92576595 231.93063628 -2.74335178 233.60032809 4.72505188 233.53485107 C5.84543333 233.54292938 5.84543333 233.54292938 6.98844874 233.55117089 C9.47484609 233.56540328 11.96070748 233.55835861 14.4471283 233.55122375 C16.23649522 233.55692984 18.0258585 233.56389503 19.81521606 233.57202148 C24.66447737 233.58994271 29.51355762 233.58878631 34.36284208 233.5830791 C38.41592858 233.57998541 42.46898039 233.58608179 46.52206194 233.59211785 C56.08679448 233.60615839 65.6514377 233.604606 75.21617126 233.59321594 C85.07225495 233.58173804 94.92806643 233.595806 104.78411424 233.62261242 C113.25653221 233.64478996 121.72886487 233.65140207 130.2013098 233.64553601 C135.25693189 233.64216981 140.31237955 233.64455901 145.36797714 233.66178703 C150.12381244 233.67728656 154.8792455 233.67326726 159.63506508 233.65448189 C161.37607689 233.65080418 163.11711869 233.65388054 164.8581028 233.66436768 C179.0673521 233.77060309 179.0673521 233.77060309 191.33628845 227.18232727 C191.86351501 226.53135071 192.39074158 225.88037415 192.9339447 225.20967102 C193.47921814 224.56127258 194.02449158 223.91287415 194.58628845 223.24482727 C197.46142102 218.96796802 198.24602993 215.30578916 198.24127197 210.18867493 C198.24520966 208.99421753 198.24914734 207.79976013 198.25320435 206.56910706 C198.24750931 205.26713379 198.24181427 203.96516052 198.23594666 202.62373352 C198.23706011 201.23211057 198.23911883 199.84048811 198.24205017 198.4488678 C198.24676571 195.45706056 198.24565932 192.46533185 198.24027443 189.473526 C198.23265836 184.74179944 198.24332668 180.01022385 198.25747681 175.27851868 C198.29520028 161.8252248 198.31339653 148.37199981 198.30186462 134.9186554 C198.29564941 127.48464937 198.30722046 120.05088742 198.33830994 112.61694145 C198.35696901 107.91396947 198.35364238 103.21168861 198.33414233 98.50872803 C198.32726039 95.58241928 198.34121726 92.65648539 198.36109161 89.7302475 C198.36854338 87.72856878 198.35119069 85.72684581 198.33309937 83.72523499 C198.43463966 73.94189761 198.43463966 73.94189761 201.3364563 70.79804993 C203.9964447 69.14717102 203.9964447 69.14717102 207.1839447 69.20967102 C209.9964447 70.14717102 209.9964447 70.14717102 211.9964447 72.14717102 C212.25371361 74.64546967 212.25371361 74.64546967 212.26387024 77.8631134 C212.27666519 79.68825974 212.27666519 79.68825974 212.28971863 81.55027771 C212.28901952 82.90614332 212.28809641 84.26200882 212.28697205 85.61787415 C212.29295412 87.04035293 212.29975892 88.46282846 212.30732727 89.88529968 C212.32503778 93.75764728 212.32968506 97.62990655 212.33095884 101.50229073 C212.33237936 103.92357428 212.33664728 106.34483531 212.34195328 108.76611328 C212.36047764 117.21964444 212.36862181 125.67311243 212.36705017 134.12666321 C212.3658515 141.9939367 212.38689345 149.86093461 212.4185375 157.72813845 C212.44475508 164.48837712 212.45541502 171.2485262 212.45413935 178.00881529 C212.45363087 182.04344062 212.45924927 186.07782173 212.48049545 190.11239624 C212.49996778 193.91443995 212.49994159 197.71600903 212.48546219 201.51807022 C212.48338332 202.90712813 212.48801956 204.29621641 212.50018311 205.68522263 C212.60581198 218.59291679 209.66680983 228.02034924 200.9339447 237.70967102 C193.35155917 245.09553684 183.68649674 247.30032574 173.43914795 247.28761292 C172.31013747 247.2920696 172.31013747 247.2920696 171.1583187 247.29661632 C168.64056356 247.30527588 166.12285612 247.30680924 163.60508728 247.30830383 C161.797937 247.31293398 159.9907877 247.31795891 158.18363953 247.323349 C153.27639624 247.33645685 148.36916663 247.34291492 143.46190858 247.34735966 C140.39386134 247.35029326 137.32581781 247.35439864 134.25777245 247.35886383 C124.6522609 247.37253511 115.04675787 247.38220332 105.44123727 247.38606572 C94.36498436 247.39054434 83.28885498 247.40808473 72.21263963 247.43706632 C63.64344876 247.45870728 55.07429258 247.46877131 46.50507468 247.47010684 C41.39072301 247.47115322 36.27648752 247.47702548 31.16216469 247.49492645 C26.34815545 247.51144865 21.53434921 247.51354252 16.72032166 247.50478745 C14.95876203 247.50401926 13.1971913 247.50833075 11.43565941 247.5182457 C-2.75300751 247.5933896 -14.21970529 246.37552063 -24.9801178 236.29560852 C-32.5854517 228.17246465 -35.15360626 219.51915792 -35.15072632 208.55863953 C-35.15440301 207.80258789 -35.15807969 207.04653625 -35.1618678 206.26757395 C-35.17286618 203.73833764 -35.17674194 201.20914247 -35.18055725 198.67988586 C-35.18682484 196.86450572 -35.1934719 195.04912686 -35.20046997 193.23374939 C-35.22147884 187.27521147 -35.23186988 181.31667338 -35.24183655 175.35810852 C-35.24588539 173.30382397 -35.25000235 171.24953956 -35.25418663 169.19525528 C-35.27323188 159.54222371 -35.28746392 149.88919975 -35.2957986 140.23615301 C-35.30556673 129.10780359 -35.33187804 117.9796533 -35.37229949 106.85137403 C-35.40249919 98.24055515 -35.41727116 89.62979324 -35.42057961 81.01892245 C-35.42292581 75.880464 -35.43183022 70.74221844 -35.45704079 65.60381699 C-35.48039378 60.76596031 -35.48452574 55.92845562 -35.4742794 51.0905571 C-35.47378568 49.32134833 -35.48005764 47.5521218 -35.49383545 45.78296661 C-35.59810055 31.59332818 -33.78171288 20.41552487 -23.8785553 9.58467102 C-17.21771831 3.09646912 -9.16871948 0.03665086 0 0 Z " fill="#000000" transform="translate(165.00355529785156,134.8528289794922)"/>
<path d="M0 0 C2.0410441 3.06156614 2.50785222 4.35925485 1.84713936 7.93927193 C-0.13886095 12.77036205 -4.42660905 16.27082289 -8.07446289 19.88256836 C-9.03822129 20.85773992 -10.00071418 21.83416357 -10.96203613 22.81173706 C-13.5702004 25.45572931 -16.19709139 28.08032595 -18.82892156 30.70073771 C-21.02640846 32.89203663 -23.21464055 35.09246228 -25.40298837 37.29288203 C-30.56615854 42.48412685 -35.74474807 47.65962221 -40.93334961 52.82543945 C-46.28230617 58.15142523 -51.60518726 63.50248203 -56.91579825 68.86668104 C-61.48061302 73.4758216 -66.06080271 78.06927207 -70.65369982 82.65042979 C-73.39481769 85.3848098 -76.12983518 88.1246461 -78.85032845 90.87956047 C-81.40912694 93.46931434 -83.9866302 96.03887585 -86.57968903 98.59431076 C-87.97749957 99.98124644 -89.35564652 101.38791262 -90.733078 102.79508972 C-97.63242944 109.5333851 -97.63242944 109.5333851 -102.49876404 109.68605042 C-106 109 -106 109 -108 107 C-108.65015428 103.7057711 -108.84656398 102.16080162 -108 99 C-105.420704 95.2396856 -102.20779189 92.18752164 -98.94384766 89.01977539 C-97.97002341 88.04657115 -96.99795416 87.0716081 -96.0275116 86.09503174 C-93.39435675 83.45532217 -90.73721459 80.84103627 -88.07488298 78.23079991 C-85.29244087 75.49472593 -82.53232878 72.73630641 -79.7696228 69.98033142 C-75.13020118 65.35836524 -70.47659899 60.75111026 -65.8125 56.15405273 C-59.22997636 49.66611198 -52.67316242 43.15266407 -46.1214478 36.63363278 C-37.34907284 27.90776049 -28.56956471 19.18879921 -19.75995827 10.50050354 C-18.34891434 9.10798968 -16.94018264 7.71313405 -15.5315094 6.31822205 C-14.69575882 5.49540741 -13.86000824 4.67259277 -12.99893188 3.82484436 C-12.27071543 3.10609666 -11.54249897 2.38734896 -10.79221535 1.64682102 C-7.17304556 -1.67874189 -4.68293198 -1.00348542 0 0 Z " fill="#000000" transform="translate(380,131)"/>
</svg>
